<svg version="1" xmlns="http://www.w3.org/2000/svg" width="1005.333" height="1005.333" viewBox="0 0 754.000000 754.000000"><path d="M357.5 1.1C192.7 9.2 52 125.4 11.6 286.5 6.3 307.5 1 346.4 1 363.7v6.3h125v-7.3c.1-21.3 7.3-54.3 17.5-79.7 33.9-84.6 110.2-143.3 202.5-156.1 12.1-1.7 50.8-1.7 61.5-.1 14.1 2.3 28 5.1 37.1 7.7 39.9 11.5 75.9 32.4 107.4 62.4l9.5 9-30.5 30.6-30.5 30.5H699V68.5l-24.7 24.7-24.8 24.7-10.7-10.4C562.1 33.5 462.5-4.1 357.5 1.1z"/><path d="M321.3 279c-6.5 3.9-6.4 2.2-6.1 101.9l.3 89.3 2.8 2.4c3.4 2.9 6 3 13.1.5 6.9-2.4 165.5-90.6 167.9-93.3 2.4-2.8 2.2-7-.5-9.5-3.3-3-158.3-89.3-164.3-91.5-6.5-2.3-9.3-2.2-13.2.2z"/><path d="M626.7 392.3c-1.4 22-6.6 47.5-14 67.7-32.4 89.1-110.4 151.9-204.2 164.5-14.5 2-45.8 2.3-60 .5-47-5.6-91.4-24-127.5-52.8-10.6-8.4-28-25-28-26.6 0-.6 13.4-14.5 29.7-30.8l29.8-29.8H53v199.5l24.8-24.8c13.6-13.6 25.1-24.7 25.6-24.7s5.9 4.8 12 10.8c83.7 81.3 199.3 118.8 315.1 102.1 130.8-18.8 242.9-106.4 294.2-229.8 14.7-35.6 24.9-79.3 26.8-115.6.3-6.1.8-13.1 1.1-15.8l.5-4.7H627.3l-.6 10.3z"/></svg>